<svg id="Layer_1" data-name="Layer 1" xmlns="http://www.w3.org/2000/svg" viewBox="0 0 2165.15 570"><defs><style>.cls-1{fill:#479e95;}.cls-2{fill:#41aaaa;}.cls-3{fill:#fff;}</style></defs><title>main-logo</title><path class="cls-1" d="M269.16,224.58V121.27c-2.53,0-5.94,0-13.89-.1l-7.06,36a139.91,139.91,0,0,0-41.68,13.34l-26.65-25.28c-14.53,10.47-8.22,5.89-24,17.26l15.46,33.24a139.92,139.92,0,0,0-25.91,35.33l-36.37-4.78c-5.54,16.69-3.29,9.83-9.3,28l32.09,17.83a142.81,142.81,0,0,0-.2,43.79L99.42,333.5c5.57,17.26,3.35,10.37,9,28.09l36.46-4.4a139.39,139.39,0,0,0,25.57,35.56l-15.8,33.11,11.91,8.74,11.87,8.7,26.87-25A138.38,138.38,0,0,0,246.87,432l6.69,36.11c10.71.06,13.2.11,15.6.11V364.86a70.14,70.14,0,0,1,0-140.28Z" transform="translate(-10.31)"/><path class="cls-2" d="M406.43,317.29l32.08,17.87c-6,18.1-3.79,11.35-9.25,28l-36.38-4.82a136,136,0,0,1-25.95,35.29L382.39,427l-23.92,17.2-26.65-25.26a137.84,137.84,0,0,1-41.71,13.32l-7,36-13.92,0V364.86a70.14,70.14,0,0,0,0-140.28V121.27c3.55,0,5.32,0,15.58.07l6.73,36.11A136.91,136.91,0,0,1,333,171.18l26.9-25,11.87,8.74,11.92,8.7L367.9,196.74a136.91,136.91,0,0,1,25.53,35.59l36.47-4.46c5.4,16.89,2.74,8.56,9,28.09L406.63,273.5A139.85,139.85,0,0,1,406.43,317.29Z" transform="translate(-10.31)"/><path class="cls-3" d="M289.44,35,248.88,0V17.24C128.24,27.39,28.77,119.58,10.31,237.67H46.55C64.42,139.33,148,62.95,248.88,53.13V70Z" transform="translate(-10.31)"/><path class="cls-3" d="M328,521.39c-94.16,33.72-202.32-.19-261.26-82.79L81.63,430,31,412.37,21,465l14.66-8.47c69.08,99.51,198.89,139.31,310.45,96.23Z" transform="translate(-10.31)"/><path class="cls-3" d="M451.09,104.43,433,135.81c76.4,64.78,101,175.08,58.68,267.5L477,394.85l10,52.63,50.62-17.61-14.93-8.62C574.64,311.59,544.3,179.61,451.09,104.43Z" transform="translate(-10.31)"/><path class="cls-3" d="M734.18,228a4.08,4.08,0,0,1-2.47,4,8.83,8.83,0,0,1-3.65.54h-6.87L676.49,349.21H663.93L618.49,232.55h-7q-4,0-5.26-2.15a4,4,0,0,1-.75-2.36A4.16,4.16,0,0,1,608,224a10.45,10.45,0,0,1,3.54-.43h33.62q4,0,5.37,2a5.09,5.09,0,0,1,.64,2.47,4.08,4.08,0,0,1-2.47,4,8.48,8.48,0,0,1-3.54.54H627.83l41.89,107.64h.64l41.36-107.64H694.54q-4.08,0-5.37-2.15a4,4,0,0,1-.75-2.36A4.28,4.28,0,0,1,691,224a9.91,9.91,0,0,1,3.54-.43h33.52q4.08,0,5.48,2A5.09,5.09,0,0,1,734.18,228Z" transform="translate(-10.31)"/><path class="cls-3" d="M859.65,228q0,4.51-6,4.51H846V349.21H834.4L767.91,236.74V340.19h16.65q6.12,0,6.12,4.51t-6.12,4.51H751.37q-6.12,0-6.12-4.51t6.12-4.51h7.52V232.55H746.75q-6,0-6-4.51t6-4.51h23.63L837,336.21V232.55H820.33q-6,0-6-4.51t6-4.51h33.3Q859.65,223.53,859.65,228Z" transform="translate(-10.31)"/><path class="cls-3" d="M998.44,344.7q0,4.51-6.12,4.51H959.12q-6.12,0-6.12-4.51t6.12-4.51h16.65V232.55h-1.93l-34.05,79H929.47l-34.7-79h-1.72V340.19h16.65q6,0,6,4.51t-6,4.51h-33.3q-6,0-6-4.51t6-4.51H884V232.55h-5.69q-6,0-6-4.51t6-4.51h22.13l34.16,77.77,33.62-77.77h22.13q6.12,0,6.12,4.51t-6.12,4.51h-5.59V340.19h7.52Q998.44,340.19,998.44,344.7Z" transform="translate(-10.31)"/><path class="cls-3" d="M1114.88,349.21H1015.3q-6,0-6-4.51t6-4.51h12.14V232.55H1015.3q-6,0-6-4.51t6-4.51h94.85v31q0,6-4.51,6t-4.51-6v-22h-64.67V279.5h32.33V269.29q0-6,4.57-6t4.46,6v29.43q0,6-4.46,6t-4.57-6V288.52h-32.33v51.67h69.4V313.55q0-6,4.51-6t4.51,6Z" transform="translate(-10.31)"/><path class="cls-3" d="M1250,325.37q0,2.36-4.62,7.52-17.83,19.88-42.11,19.87a56.71,56.71,0,0,1-19.87-3.76q-13.32-4.94-25.14-19.87-12.79-15.79-12.78-34.05V276.7a57.66,57.66,0,0,1,7.41-27.82q7.41-13.64,19.34-20.84a51.25,51.25,0,0,1,26.86-7.41,54,54,0,0,1,38.46,15.25v-6.34q0-6,4.51-6t4.51,6v25q0,6.12-4.51,6.12-4.19,0-4.51-5.48-.54-9-9.78-16a45.65,45.65,0,0,0-28.36-9.56,43.82,43.82,0,0,0-19.66,4.62,33.22,33.22,0,0,0-11,8.16q-14.29,16.87-14.29,35.56v15.79q0,20,14.29,34.8,14.39,15.15,34.27,15.15,21.59,0,38.56-20.3a5.45,5.45,0,0,1,4.08-2.26Q1250,321.18,1250,325.37Z" transform="translate(-10.31)"/><path class="cls-3" d="M1385.8,344.7q0,4.51-6,4.51h-31.29q-6,0-6-4.51t6-4.51h12V288.41h-59.94v51.78h12.14q6,0,6,4.51t-6,4.51h-31.37q-6,0-6-4.51t6-4.51h10.21V232.55H1286q-6.12,0-6.12-4.51t6.12-4.51h26.75q6,0,6,4.51t-6,4.51h-12.14v46.84h59.94V232.55h-12q-6,0-6-4.51t6-4.51h26.67q6.11,0,6.11,4.51t-6.12,4.51h-5.59V340.19h10.21Q1385.8,340.19,1385.8,344.7Z" transform="translate(-10.31)"/><path class="cls-3" d="M1526.42,344.7q0,4.51-6,4.51h-33.54q-6.11,0-6.11-4.51t6.12-4.51h17.19l-12.44-33H1432.4l-12.22,33h17.29q6,0,6,4.51t-6,4.51h-33.65q-6,0-6-4.51t6-4.51h7l39.81-107.64H1424q-6,0-6-4.51t6-4.51h45.39l44,116.66h7Q1526.42,340.19,1526.42,344.7Zm-38.21-46.51-24.9-65.63H1460l-24.15,65.63Z" transform="translate(-10.31)"/><path class="cls-3" d="M1651.78,228q0,4.51-6,4.51h-7.63V349.21h-11.6L1560,236.74V340.19h16.65q6.12,0,6.12,4.51t-6.12,4.51H1543.5q-6.12,0-6.12-4.51t6.12-4.51H1551V232.55h-12.14q-6,0-6-4.51t6-4.51h23.63l66.6,112.69V232.55h-16.65q-6,0-6-4.51t6-4.51h33.3Q1651.78,223.53,1651.78,228Z" transform="translate(-10.31)"/><path class="cls-3" d="M1767.47,344.7q0,4.51-6,4.51h-70.9q-6,0-6-4.51t6-4.51h30.94V232.55h-30.94q-6,0-6-4.51t6-4.51h70.9q6,0,6,4.51t-6,4.51h-30.94V340.19h30.94Q1767.47,340.19,1767.47,344.7Z" transform="translate(-10.31)"/><path class="cls-3" d="M1910.13,325.37q0,2.36-4.62,7.52-17.83,19.88-42.11,19.87a56.71,56.71,0,0,1-19.87-3.76q-13.32-4.94-25.14-19.87-12.79-15.79-12.78-34.05V276.7a57.66,57.66,0,0,1,7.41-27.82q7.41-13.64,19.34-20.84a51.25,51.25,0,0,1,26.86-7.41,54,54,0,0,1,38.46,15.25v-6.34q0-6,4.51-6t4.51,6v25q0,6.12-4.51,6.12-4.19,0-4.51-5.48-.54-9-9.78-16a45.65,45.65,0,0,0-28.36-9.56,43.82,43.82,0,0,0-19.66,4.62,33.22,33.22,0,0,0-11,8.16q-14.29,16.87-14.29,35.56v15.79q0,20,14.29,34.8,14.39,15.15,34.27,15.15,21.59,0,38.56-20.3a5.45,5.45,0,0,1,4.08-2.26Q1910.12,321.18,1910.13,325.37Z" transform="translate(-10.31)"/><path class="cls-3" d="M2054.5,344.7q0,4.51-6,4.51H2015q-6.11,0-6.11-4.51t6.12-4.51h17.19l-12.44-33h-59.23l-12.22,33h17.29q6,0,6,4.51t-6,4.51h-33.65q-6,0-6-4.51t6-4.51h7l39.81-107.64h-26.61q-6,0-6-4.51t6-4.51h45.39l44,116.66h7Q2054.5,340.19,2054.5,344.7Zm-38.21-46.51-24.9-65.63h-3.33l-24.15,65.63Z" transform="translate(-10.31)"/><path class="cls-3" d="M2175.46,349.21h-99.69q-6,0-6-4.51t6-4.51h21.57V232.55h-21.57q-6,0-6-4.51t6-4.51H2128q6,0,6,4.51t-6,4.51h-21.57V340.19h60V304.31q0-6,4.57-6t4.46,6Z" transform="translate(-10.31)"/></svg>